<?xml version="1.0" standalone="no"?>
<!DOCTYPE svg PUBLIC "-//W3C//DTD SVG 20010904//EN"
 "http://www.w3.org/TR/2001/REC-SVG-20010904/DTD/svg10.dtd">
<svg version="1.0" xmlns="http://www.w3.org/2000/svg"
 width="256.000000pt" height="256.000000pt" viewBox="0 0 256.000000 256.000000"
 preserveAspectRatio="xMidYMid meet">

<g transform="translate(0.000000,256.000000) scale(0.100000,-0.100000)"
fill="#000000" stroke="none">
<path d="M1373 2235 c0 -22 2 -30 4 -17 2 12 2 30 0 40 -3 9 -5 -1 -4 -23z"/>
<path d="M1373 2120 c0 -30 2 -43 4 -27 2 15 2 39 0 55 -2 15 -4 2 -4 -28z"/>
<path d="M1678 1933 c7 -3 16 -2 19 1 4 3 -2 6 -13 5 -11 0 -14 -3 -6 -6z"/>
<path d="M1484 1260 l8 -180 -49 0 c-205 0 -360 -85 -435 -238 -31 -63 -33
-72 -33 -177 0 -82 5 -122 18 -157 39 -101 134 -184 250 -220 98 -29 258 -23
337 13 50 23 55 29 55 57 0 18 -1 32 -3 32 -1 0 -31 -14 -65 -32 -159 -80
-340 -31 -413 114 -42 83 -57 171 -45 258 29 189 133 291 301 294 l75 1 -2
-192 -2 -193 69 0 70 0 -7 197 -6 196 112 -7 c62 -4 119 -10 127 -13 11 -4 14
4 14 32 l0 37 -122 -3 -123 -4 0 155 0 155 158 -3 157 -3 0 31 0 30 -226 0
-227 0 7 -180z"/>
<path d="M1010 1309 c-131 -23 -256 -113 -310 -223 -82 -166 -54 -355 68 -467
42 -40 119 -81 174 -94 26 -7 27 -6 18 24 -5 18 -32 53 -63 81 -70 64 -99 128
-105 234 -10 165 53 307 165 373 88 51 261 39 351 -26 l37 -28 -3 48 -4 47
-61 17 c-75 21 -193 27 -267 14z"/>
<path d="M1373 1215 c0 -44 2 -61 4 -37 2 23 2 59 0 80 -2 20 -4 1 -4 -43z"/>
<path d="M1290 1197 c0 -2 15 -16 33 -33 l32 -29 -29 33 c-28 30 -36 37 -36
29z"/>
<path d="M1250 720 c6 -135 6 -133 -71 -159 -29 -9 -36 -16 -32 -31 8 -32 74
-24 191 22 l52 20 0 134 0 134 -72 0 -73 0 5 -120z"/>
</g>
</svg>
